<?xml version="1.0" encoding="utf-8"?>
<!-- Generator: Adobe Illustrator 23.0.5, SVG Export Plug-In . SVG Version: 6.00 Build 0)  -->
<svg version="1.1" id="Capa_1" xmlns="http://www.w3.org/2000/svg" xmlns:xlink="http://www.w3.org/1999/xlink" x="0px" y="0px"
	 viewBox="0 0 26 25" style="enable-background:new 0 0 26 25;" xml:space="preserve">
<path d="M19.8,0.7c-3.5-0.4-5.3,0.8-6.8,2.4c-1.5-1.6-3.2-2.8-6.8-2.4C3.5,0.9,0.4,3.3,0,7.9l0,1.4c0.4,4.8,4.5,9.9,12.5,15.3L13,25
	l0.5-0.3c8-5.5,12.2-10.5,12.5-15.4l0-1.4C25.6,3.3,22.5,0.9,19.8,0.7z M13,23C5.8,18,2,13.4,1.6,9.3l0-1.3c0.3-3.6,2.7-5.5,4.8-5.7
	c0.4,0,0.7-0.1,1-0.1c2.3,0,3.4,0.8,5,2.6L13,5.6l0.6-0.7c1.8-2,3-2.9,6-2.6c2.1,0.2,4.5,2.1,4.8,5.6l0,1.3C24,13.4,20.2,18,13,23z"
	/>
</svg>
