<?xml version="1.0" encoding="utf-8"?>
<!-- Generator: Adobe Illustrator 23.0.5, SVG Export Plug-In . SVG Version: 6.00 Build 0)  -->
<svg version="1.1" id="Capa_1" xmlns="http://www.w3.org/2000/svg" xmlns:xlink="http://www.w3.org/1999/xlink" x="0px" y="0px"
	 viewBox="0 0 24 24" style="enable-background:new 0 0 24 24;" xml:space="preserve">
<path d="M18,1.5c2.5,0,4.5,2,4.5,4.5v12c0,2.5-2,4.5-4.5,4.5H6c-2.5,0-4.5-2-4.5-4.5V6c0-2.5,2-4.5,4.5-4.5H18z M18,0H6
	C2.7,0,0,2.7,0,6v12c0,3.3,2.7,6,6,6h12c3.3,0,6-2.7,6-6V6C24,2.7,21.3,0,18,0z M11.3,4.5h-6c-0.4,0-0.8,0.3-0.8,0.8S4.8,6,5.3,6h6
	C11.7,6,12,5.7,12,5.3S11.7,4.5,11.3,4.5z M14.3,10.5h-6c-0.4,0-0.8,0.3-0.8,0.8S7.8,12,8.3,12h6c0.4,0,0.8-0.3,0.8-0.8
	S14.7,10.5,14.3,10.5z M17.3,16.5h-6c-0.4,0-0.8,0.3-0.8,0.8s0.3,0.8,0.8,0.8h6c0.4,0,0.8-0.3,0.8-0.8S17.7,16.5,17.3,16.5z"/>
</svg>
