<?xml version="1.0" encoding="utf-8"?>
<!-- Generator: Adobe Illustrator 23.0.5, SVG Export Plug-In . SVG Version: 6.00 Build 0)  -->
<svg version="1.1" id="Capa_1" xmlns="http://www.w3.org/2000/svg" xmlns:xlink="http://www.w3.org/1999/xlink" x="0px" y="0px"
	 viewBox="0 0 23 24" style="enable-background:new 0 0 23 24;" xml:space="preserve">
<path d="M21.5,11.1C21.2,9.3,19.6,8,17.8,8V6.4C17.8,2.9,15,0,11.5,0C8,0,5.2,2.9,5.2,6.4V8c-1.8,0-3.4,1.3-3.7,3.1l-1.4,7.1
	c-0.3,1.4,0.1,2.9,1,4C2,23.4,3.3,24,4.7,24h13.6c1.4,0,2.7-0.6,3.6-1.8c0.9-1.1,1.3-2.6,1-4L21.5,11.1z M6.8,6.4
	c0-2.6,2.1-4.8,4.7-4.8c2.6,0,4.7,2.2,4.7,4.8V8H6.8V6.4z M3,11.4c0.2-1,1.1-1.8,2.2-1.8h12.6c1,0,1.9,0.8,2.2,1.8l1.4,7.2
	c0.2,0.9-0.1,1.9-0.6,2.7c-0.6,0.7-1.5,1.2-2.4,1.2H4.7c-0.9,0-1.8-0.4-2.4-1.2c-0.6-0.7-0.8-1.7-0.6-2.7L3,11.4z M5.2,12
	c0-0.4,0.4-0.8,0.8-0.8c0.4,0,0.8,0.4,0.8,0.8v1.6c0,0.4-0.4,0.8-0.8,0.8c-0.4,0-0.8-0.4-0.8-0.8V12z M16.2,12
	c0-0.4,0.4-0.8,0.8-0.8c0.4,0,0.8,0.4,0.8,0.8v1.6c0,0.4-0.4,0.8-0.8,0.8c-0.4,0-0.8-0.4-0.8-0.8V12z"/>
</svg>
